<svg width="192" height="52" viewBox="0 0 192 52" fill="none" xmlns="http://www.w3.org/2000/svg">
<path fill-rule="evenodd" clip-rule="evenodd" d="M38.8471 0.764347C35.1692 2.68263 0 24.6121 0 24.9865C0 25.7321 1.95468 26.0655 6.40068 26.0774C11.8919 26.093 14.1705 25.4711 20.2077 22.309C22.8847 20.9071 25.4004 19.7599 25.7977 19.7599C26.195 19.7599 26.988 20.2279 27.56 20.7999C28.4742 21.7141 28.6 22.5331 28.6 27.5599V33.2799H38.48H48.36V19.3616C48.36 6.86655 48.2622 5.25871 47.4058 3.63163C45.7584 0.502787 41.8553 -0.805013 38.8471 0.764347Z" fill="white"/>
<path fill-rule="evenodd" clip-rule="evenodd" d="M149.278 3.45019C146.18 7.38867 150.67 12.5174 154.5 9.41563C156.059 8.15359 156.188 4.76371 154.738 3.16159C153.303 1.57663 150.641 1.71703 149.278 3.45019ZM129.821 6.67107C129.151 7.41051 128.96 8.68295 128.96 12.3911V17.16H127.516C125.424 17.16 123.76 18.5094 123.76 20.2056C123.76 22.1478 124.643 22.88 126.984 22.88H128.96V31.5936C128.96 40.794 129.272 42.8137 131.109 45.4943C134.664 50.6823 143.015 51.5003 142.992 46.658C142.98 44.1901 142.31 43.5084 139.58 43.1881C137.683 42.965 136.879 42.5677 136.034 41.4336C135.045 40.1081 134.925 39.1482 134.775 31.4236L134.61 22.88H137.661C141.052 22.88 141.96 22.3153 141.96 20.2056C141.96 18.2587 140.23 17.16 137.164 17.16H134.68V12.2569C134.68 8.49315 134.49 7.16455 133.863 6.53691C132.767 5.44127 130.877 5.50367 129.821 6.67107ZM108.648 16.2983C107.344 16.6561 105.553 17.4647 104.668 18.0944C102.695 19.4995 102.44 19.5135 102.44 18.2182C102.44 16.2214 99.07 15.4253 97.5807 17.0711C96.8215 17.9098 96.7201 19.8047 96.7201 33.1791V48.3361L98.0601 49.2143C99.7938 50.35 101.986 49.6688 102.496 47.8353C102.694 47.1229 102.88 41.9364 102.908 36.31C102.96 26.156 102.97 26.0681 104.277 24.5143C106.078 22.3745 108.606 21.6393 112.919 22.0007C116.933 22.3376 118.216 21.6611 117.938 19.3559C117.605 16.5911 113.047 15.0904 108.648 16.2983ZM69.8689 17.1194C66.6709 18.5718 63.6528 21.5613 62.0382 24.8763C60.7678 27.4841 60.603 28.4128 60.5947 33.02C60.5869 37.5393 60.7616 38.5944 61.93 41.08C63.776 45.0086 65.5913 47.0033 68.7545 48.5794C73.3908 50.8898 78.6246 50.3162 82.9401 47.0251C84.7039 45.6794 84.7601 45.6705 84.7601 46.7381C84.7601 48.1301 86.5151 49.92 87.8801 49.92C88.4521 49.92 89.4063 49.4338 90.0001 48.8399C91.0297 47.8103 91.0724 47.3059 90.9101 38.0499C90.7495 28.8615 90.6673 28.185 89.3876 25.4561C86.4277 19.1464 81.9698 16.1117 75.6882 16.1314C73.2301 16.1392 71.3103 16.4653 69.8689 17.1194ZM150.058 16.9364C148.741 18.253 148.662 19.3388 148.825 33.8811C148.968 46.6487 149.058 47.8182 149.971 48.8264C151.15 50.128 152.237 50.2086 153.804 49.1104C154.954 48.3054 154.96 48.2196 154.96 33.0709C154.96 18.9769 154.889 17.7772 154.009 16.9806C152.811 15.8964 151.117 15.8771 150.058 16.9364ZM170.949 16.862C159.879 20.8125 157.203 38.0967 166.331 46.6923C170.789 50.8903 178.141 51.0302 183.402 47.0173C184.614 46.0933 185.12 45.9243 185.12 46.4433C185.12 47.7266 187.226 49.92 188.457 49.92C189.107 49.92 190.045 49.4723 190.54 48.9247C191.342 48.0376 191.422 46.8307 191.271 37.8747C191.119 28.9172 190.979 27.5579 189.989 25.4165C188.418 22.0199 185.298 18.7616 182.26 17.3435C179.251 15.9395 174.143 15.7222 170.949 16.862ZM71.8475 22.9559C67.3864 25.1638 65.1675 31.0783 66.7561 36.5258C68.6968 43.1813 74.9082 45.9186 80.4441 42.5578C86.9696 38.596 86.2988 25.9849 79.3958 22.8503C76.5571 21.5618 74.6087 21.5888 71.8475 22.9559ZM172.9 22.5799C169.049 24.3063 166.92 28.0223 166.92 33.02C166.92 40.7331 173.084 45.9841 179.159 43.4455C181.752 42.3623 182.907 41.2979 184.164 38.8346C187.129 33.0252 185.158 25.6479 179.936 23.01C177.319 21.6881 175.181 21.5576 172.9 22.5799ZM28.6115 36.01C28.6339 41.3088 31.6681 45.3195 38.6969 49.3412C43.5007 52.09 45.7497 52.5304 47.2613 51.0187C48.2878 49.9923 48.3601 49.3745 48.3601 41.6V33.28H38.4801H28.6001L28.6115 36.01Z" fill="white"/>
</svg>
