<svg width="76" height="79" viewBox="0 0 76 79" fill="none" xmlns="http://www.w3.org/2000/svg">
<path d="M17.1901 42.6119V16.9373H5.97231C2.67016 16.9373 0 19.6233 0 22.9254V75.9968C0 78.6669 3.22315 79.9941 5.10332 78.1139L17.4429 65.7743H52.5816C55.8837 65.7743 58.5539 63.1042 58.5539 59.802V48.5842H23.1782C19.8761 48.5842 17.1901 45.9141 17.1901 42.6119Z" fill="white"/>
<path d="M69.7716 0H23.1781C19.876 0 17.2058 2.67016 17.2058 5.9723V16.9373H52.5815C55.8836 16.9373 58.5538 19.6075 58.5538 22.9096V48.5684H69.7716C73.0737 48.5684 75.7439 45.8983 75.7439 42.5961V5.9723C75.7439 2.67016 73.0737 0 69.7716 0V0Z" fill="white"/>
<path d="M52.5816 16.9373H17.1902V42.5961C17.1902 45.8983 19.8603 48.5684 23.1625 48.5684H58.5381V22.9254C58.5539 19.6233 55.8838 16.9373 52.5816 16.9373Z" fill="white"/>
</svg>
