<svg width="69" height="80" viewBox="0 0 69 80" fill="none" xmlns="http://www.w3.org/2000/svg">
<path d="M68.0861 28.2202C66.8719 21.6004 63.9733 15.8183 59.3945 10.8839C57.4689 8.80788 55.2888 6.98344 52.906 5.45389C48.4536 2.59175 43.6036 0.838124 38.344 0.216921C37.7028 0.140847 37.0524 0.150845 36.4204 0H31.8824C31.8333 0.114329 31.7281 0.0725969 31.6446 0.0804217C30.4761 0.183448 29.3133 0.31647 28.16 0.53513C19.7322 2.13139 12.8112 6.26941 7.45423 12.9535C3.04799 18.4505 0.621431 24.7564 0.0971682 31.7874C-0.158329 35.177 0.0907216 38.5858 0.836178 41.9023C1.38699 44.3781 2.22499 46.781 3.33316 49.0624C3.43097 49.2572 3.52748 49.4519 3.62703 49.6467C5.45673 53.2496 7.81026 56.4604 10.7598 59.2334C12.3126 60.6931 13.9723 62.0138 15.769 63.1549C21.2742 66.6491 27.2836 68.4814 33.8121 68.5632C34.2129 68.5688 34.322 68.6675 34.3194 69.077C34.3012 72.5712 34.309 76.0659 34.3099 79.5605C34.3103 79.6961 34.3207 79.8313 34.3285 80C34.4416 79.9539 34.5124 79.9278 34.5807 79.8957C41.1435 76.8123 47.1695 72.9159 52.5417 68.0319C53.6097 67.0594 54.6358 66.0419 55.6173 64.982C56.0385 64.5286 56.4562 64.0674 56.8783 63.6144C57.5304 62.9171 58.0947 62.1381 58.7094 61.4039C59.4192 60.5571 60.0565 59.6568 60.6851 58.7509C62.0749 56.7486 63.316 54.6598 64.3593 52.4532C64.887 51.3377 65.3896 50.2136 65.8343 49.0629C65.8491 49.0411 65.8691 49.022 65.8786 48.9985C67.0906 45.8477 67.8674 42.5874 68.2808 39.2423C68.4252 38.0773 68.5186 36.9049 68.5778 35.7333C68.7049 33.2183 68.5399 30.6971 68.0861 28.2202ZM23.8963 49.2528C23.3073 49.4128 22.7065 49.5045 22.1062 49.5924C21.6419 49.6602 21.3394 49.4024 21.1663 48.9838L21.1711 45.1113C21.1937 44.7314 21.0407 44.3241 21.345 43.9889C21.4959 43.8229 21.6667 43.709 21.8975 43.6516C22.5735 43.4812 23.2586 43.3451 23.8742 42.9778C25.0079 42.3009 25.7134 41.3241 26.0264 40.0509C26.0751 39.8505 26.1216 39.6488 26.1681 39.4475C23.446 39.4423 20.7247 39.4375 18.0025 39.434C17.7669 39.4336 17.5348 39.4253 17.3052 39.3618C16.6114 39.1697 16.0802 38.5368 16.0793 37.8208C16.0741 33.7049 16.0824 29.5887 16.0854 25.4728C16.0285 24.8151 16.0859 24.1987 16.6388 23.7287C16.9392 23.4744 17.2692 23.3205 17.6639 23.3205C21.6663 23.3197 25.6687 23.3227 29.671 23.3184C30.7304 23.3166 31.6073 24.3847 31.2682 25.4289C31.3499 25.6263 31.3347 25.8349 31.3347 26.041C31.3356 30.5259 31.3608 35.0126 31.3264 39.4975C31.3043 42.4739 30.1453 44.977 27.9665 47.0067C27.8526 47.1123 27.7427 47.2223 27.6314 47.3301C26.5029 48.1952 25.2813 48.8781 23.8963 49.2528ZM46.0388 48.9668C45.9888 48.9803 45.938 48.9946 45.8862 49.0094L45.7997 49.0585C45.0251 49.2776 44.2435 49.4593 43.4445 49.5758C42.835 49.6654 42.3742 49.3211 42.3668 48.7081C42.3607 48.2786 42.3577 47.8483 42.3542 47.4184L42.3764 45.1092C42.3729 44.9392 42.3668 44.7705 42.3672 44.6014C42.3681 44.0102 42.5955 43.7607 43.3306 43.5929C44.2626 43.3794 45.1394 43.0786 45.8649 42.4053C46.7357 41.5967 47.1751 40.5873 47.3751 39.4466L39.832 39.4323C39.5586 39.4318 39.2847 39.4357 39.0108 39.431C37.984 39.414 37.2811 38.7041 37.2811 37.6717C37.2824 33.6067 37.2881 29.5421 37.2907 25.4767C37.2907 25.4376 37.2863 25.3985 37.2837 25.3593C37.2046 24.5986 37.4233 23.9752 38.0992 23.5527C38.3618 23.3875 38.6474 23.3197 38.9495 23.3197C42.9254 23.3175 46.9008 23.321 50.8772 23.3162C51.9361 23.3149 52.8125 24.383 52.4739 25.4272C52.5547 25.6245 52.5399 25.8327 52.5399 26.0388C52.5399 30.5315 52.5425 35.0243 52.5386 39.5175C52.5351 43.5312 50.0199 47.2871 46.3127 48.829C46.2192 48.869 46.1301 48.9207 46.0388 48.9668Z" fill="white"/>
<path d="M31.2689 25.428C31.0542 24.6703 30.446 24.1804 29.6744 24.1795C25.6999 24.1752 21.7249 24.173 17.7503 24.1809C16.8787 24.1826 16.3792 24.7042 16.0853 25.4719C16.0284 24.8142 16.0858 24.1978 16.6387 23.7279C16.9391 23.4736 17.2691 23.3197 17.6638 23.3197C21.6662 23.3188 25.6686 23.3219 29.6709 23.3171C30.7312 23.3158 31.608 24.3839 31.2689 25.428ZM52.4742 25.428C52.2464 24.649 51.6439 24.1791 50.841 24.1787C46.8951 24.1752 42.9492 24.1774 39.0033 24.1765C38.2974 24.1765 37.7905 24.503 37.451 25.1094C37.4023 25.1976 37.394 25.3128 37.2845 25.3602C37.2054 24.5995 37.424 23.9761 38.1 23.5536C38.3626 23.3884 38.6482 23.3206 38.9503 23.3206C42.9262 23.3184 46.9016 23.3219 50.8779 23.3171C51.9364 23.3158 52.8137 24.3839 52.4742 25.428ZM47.3741 39.4466C47.5711 39.7292 47.4024 40.0174 47.3641 40.2913C47.0503 42.487 45.7196 43.905 43.5469 44.3954C43.0788 44.501 42.598 44.5945 42.3771 45.1087C42.3737 44.9392 42.3676 44.7705 42.368 44.6014C42.3689 44.0102 42.5962 43.7607 43.3313 43.5929C44.2633 43.3795 45.1402 43.0786 45.8657 42.4053C46.7347 41.5963 47.1742 40.5873 47.3741 39.4466ZM26.1689 39.4466C26.3645 39.7553 26.1972 40.0696 26.1472 40.3639C25.7694 42.5826 24.504 43.8994 22.2974 44.4084C21.84 44.5136 21.384 44.6162 21.171 45.1105C21.1936 44.7305 21.0406 44.3232 21.3449 43.9881C21.4958 43.822 21.6666 43.7081 21.8974 43.6507C22.5734 43.4803 23.2585 43.3442 23.8741 42.9769C25.0078 42.3001 25.7133 41.3233 26.0263 40.05C26.0759 39.8496 26.1215 39.6479 26.1689 39.4466Z" fill="#BFBFBF"/>
</svg>
