<svg width="97" height="80" viewBox="0 0 97 80" fill="none" xmlns="http://www.w3.org/2000/svg">
<path d="M73.9392 55.7284V52.9052V49.0064V30.6554V26.7566L76.9432 20.5051L91.963 8.60717C93.9655 6.92669 96.9695 8.33833 96.9695 10.9599V67.828C96.9695 70.4496 93.8988 71.8612 91.8962 70.1807L73.9392 55.7284Z" fill="white"/>
<path d="M24.2424 0L0 24.2424H24.2424V0Z" fill="white"/>
<path d="M24.2424 24.2425H0V55.7576H24.2424V24.2425Z" fill="white"/>
<path d="M0 55.7576V71.9191C0 76.3636 3.63636 80 8.08084 80H24.2424V55.7576H0Z" fill="white"/>
<path d="M76.9697 7.98811C76.9697 3.59466 73.4106 0 69.0606 0H53.2424H24.2424V24.2424H53.9394V40L76.9697 39.2747V7.98811Z" fill="white"/>
<path d="M53.9394 55.7576H24.2424V80H53.2424H69.0606C73.4106 80 76.9697 76.4105 76.9697 72.0235V40H53.9394V55.7576Z" fill="white"/>
<path d="M76.9697 20.6061V58.1818L53.9395 40L76.9697 20.6061Z" fill="white"/>
</svg>
