<svg width="64" height="64" viewBox="0 0 64 64" fill="none" xmlns="http://www.w3.org/2000/svg">
<path d="M13.8667 0.5H50.1333C57.4572 0.5 63.5 6.54281 63.5 13.8667V50.1333C63.5 57.4572 57.4572 63.5 50.1333 63.5H13.8667C6.54281 63.5 0.5 57.4572 0.5 50.1333V13.8667C0.5 6.54281 6.54281 0.5 13.8667 0.5Z" stroke="#FBF8F8"/>
<path d="M37.76 55.75L43.5802 19.5063L43.0976 19.3832L30.2233 55.75H23.6355L30.1122 21.7802L29.634 21.6419L16.2296 55.75H9.64454L16.6441 24.0539L16.6618 23.9739L16.6287 23.899L9.71703 8.25H16.3009L29.5621 20.7155L29.956 20.4196L23.7417 8.25H30.3121L43.0436 18.4617L43.417 18.1426L37.7641 8.25H44.3289L57.0357 16.1099L44.3508 55.75H37.76Z" fill="#FEFEFE" stroke="white" stroke-width="0.5"/>
</svg>
