<svg width="64" height="64" viewBox="0 0 64 64" fill="none" xmlns="http://www.w3.org/2000/svg">
<path d="M55.8889 0.476562H62.2066C62.6048 0.476562 62.9869 0.633471 63.2685 0.912767C63.5501 1.19206 63.7083 1.57087 63.7083 1.96587V8.23083H55.8889V0.476562Z" fill="white"/>
<path d="M52.9385 16.9681V18.7459H54.7163H60.798V61.7457H1.77777V3.24731H45.069V9.22379V11.0016H46.8467H52.9385V16.9681Z" stroke="white" stroke-width="2" stroke-miterlimit="10"/>
<path d="M52.9326 28.2468V29.9844H51.1806V31.7218V33.4594V35.1969V36.9345V38.6719V40.4095V42.1469H52.9326V40.4095V38.6719H54.6848V36.9345V35.1969V33.4594V31.7218V29.9844V28.2468H52.9326Z" fill="#F2F2F2"/>
<path d="M51.1835 26.5095H49.4313H47.6793H45.9271V28.2469V29.9845H47.6793V28.2469H49.4313H51.1835H52.9357V26.5095H51.1835Z" fill="#F2F2F2"/>
<path d="M51.1828 42.1472H49.4306V43.8846H51.1828V42.1472Z" fill="#F2F2F2"/>
<path d="M47.6793 43.8845H45.9271V45.6219H47.6793V43.8845Z" fill="#F2F2F2"/>
<path d="M33.6597 14.3372V16.0747V17.8221H35.4119V16.0747V14.3372H33.6597Z" fill="#E0E0E0"/>
<path d="M33.6514 17.822H31.8994V19.5594H33.6514V17.822Z" fill="#E0E0E0"/>
<path d="M33.6615 10.8621H31.8994V12.5996V14.3371H33.6615V12.5996V10.8621Z" fill="#E0E0E0"/>
<path d="M26.6423 16.0747V17.8221H28.3945V16.0747V14.3372H26.6423V16.0747Z" fill="#E0E0E0"/>
<path d="M26.6411 17.822H24.8889V19.5594H26.6411V17.822Z" fill="#E0E0E0"/>
<path d="M26.6411 10.8621H24.8889V12.5996V14.3371H26.6411V12.5996V10.8621Z" fill="#E0E0E0"/>
<path d="M19.6354 16.0747V17.8221H21.3876V16.0747V14.3372H19.6354V16.0747Z" fill="#E0E0E0"/>
<path d="M19.6341 17.822H17.882V19.5594H19.6341V17.822Z" fill="#E0E0E0"/>
<path d="M19.6341 10.8621H17.882V12.5996V14.3371H19.6341V12.5996V10.8621Z" fill="#E0E0E0"/>
<path d="M49.4288 28.247H47.6766V29.9845H45.9246V28.247V26.5094V24.772V23.0344H44.1724H42.4203V24.772V26.5094H44.1724V28.247V29.9845V31.7221V33.4595V35.1971V36.9345V38.6721V40.4095V42.1471V43.8846V45.6222V47.3596V49.0972H42.4203H40.6683V50.8346H38.9161V52.582H37.1639H35.4119H33.6597V54.3196H31.8976H30.1454H28.3932H26.6412H24.8891H23.1369H21.3849H19.6327H17.8805H16.1285V56.0572H17.8805H19.6327H21.3849H23.1369H24.8891H26.6412H28.3932H30.1454H31.8976H33.6597H35.4119H37.1639H38.9161V54.3196H40.6683H42.4203V52.582V50.8346H44.1724H45.9246V49.0972V47.3596H47.6766V45.6222H45.9246V43.8846V42.1471V40.4095V38.6721V36.9345V35.1971V33.4595V31.7221H47.6766H49.4288V29.9845H51.181V28.247H49.4288Z" fill="#C7C7C7"/>
<path d="M17.8827 21.2969H16.1306H14.3785V23.0343H16.1306H17.8827H19.6349V21.2969H17.8827Z" fill="white"/>
<path d="M16.1306 24.7717H14.3785V26.5093V28.2467V29.9843V31.7218V33.4594V35.1968V36.9344V38.6718H16.1306V36.9344H17.8827V35.1968V33.4594V31.7218V29.9843V28.2467H19.6349V26.5093V24.7717H17.8827H16.1306Z" fill="white"/>
<path d="M52.934 38.6724V40.4098V42.1474H54.6862V40.4098V38.6724H52.934Z" fill="#E0E0E0"/>
<path d="M52.9326 42.1472H51.1806V43.8846H52.9326V42.1472Z" fill="#E0E0E0"/>
<path d="M52.9326 28.2468H51.1806V29.9844H52.9326V28.2468Z" fill="#E0E0E0"/>
<path d="M47.6771 43.8845V45.6219H49.4291H51.1813V43.8845H49.4291H47.6771Z" fill="#E0E0E0"/>
<path d="M42.4219 24.772V23.0344H40.6697H38.9177H37.1655H35.4133H33.6611H31.899H30.147H28.3948H26.6427H24.8907H23.1385H21.3863H19.6343H17.8821H16.13H14.3779H12.6258H10.8736H9.12152V24.772H10.8736H12.6258H14.3779H16.13H17.8821H19.6343H21.3863H23.1385H24.8907H26.6427H28.3948H30.147H31.899H33.6611H35.4133H37.1655H38.9177V26.5094V28.247V29.9845V31.7221V33.4595V35.1971V36.9345V38.6721V40.4095V42.1471V43.8846V45.6222H37.1655V47.3596H35.4133V49.0972H33.6611H31.899H30.147V50.8346H28.3948H26.6427V52.582H24.8907H23.1385H21.3863H19.6343H17.8821H16.13H14.3779H12.6258V54.3196H14.3779H16.13H17.8821H19.6343H21.3863H23.1385H24.8907H26.6427H28.3948H30.147H31.899H33.6611V52.582H35.4133H37.1655H38.9177V50.8346H40.6697V49.0972H42.4219H44.174V47.3596V45.6222V43.8846V42.1471V40.4095V38.6721V36.9345V35.1971V33.4595V31.7221V29.9845V28.247V26.5094H42.4219V24.772Z" fill="#E0E0E0"/>
<path d="M44.1751 21.2969H42.4229H40.6709H38.9188H37.1666H35.4146H33.6624H31.9003H30.1481H28.3961H26.6439H24.8917H23.1397H21.3876H19.6354V23.0343H21.3876H23.1397H24.8917H26.6439H28.3961H30.1481H31.9003H33.6624H35.4146H37.1666H38.9188H40.6709H42.4229H44.1751H45.9273V21.2969H44.1751Z" fill="#F2F2F2"/>
<path d="M35.4133 24.7717H33.6611H31.899H30.147H28.3948H26.6427H24.8907H23.1385H21.3863H19.6343V26.5093V28.2467H17.8821V29.9843V31.7218V33.4594V35.1968V36.9344H16.13V38.6718H14.3779V36.9344V35.1968V33.4594V31.7218V29.9843V28.2467V26.5093V24.7717H12.6258H10.8736H9.12152V26.5093V28.2467V29.9843V31.7218V33.4594V35.1968V36.9344V38.6718V40.4094V42.1468V43.8844V45.6219V47.3595V49.0969V50.8345H10.8736V52.5819H12.6258H14.3779H16.13H17.8821H19.6343H21.3863H23.1385H24.8907H26.6427V50.8345H28.3948H30.147V49.0969H31.899H33.6611H35.4133V47.3595H37.1655V45.6219H38.9177V43.8844V42.1468V40.4094V38.6718V36.9344V35.1968V33.4594V31.7218V29.9843V28.2467V26.5093V24.7717H37.1655H35.4133Z" fill="#F2F2F2"/>
<path d="M12.6258 23.0343H14.3779V21.2969H12.6258H10.8736H9.12152V23.0343H10.8736H12.6258Z" fill="#F2F2F2"/>
</svg>
